<svg width="167" height="165" viewBox="0 0 167 165" fill="none" xmlns="http://www.w3.org/2000/svg">
<g filter="url(#filter0_d_2949_531)">
<path d="M88.5294 53.5503V52.5168L86.4118 52.2584L82.9706 52H80.0588L76.6176 52.7751L73.1765 53.8087L70.5294 54.8422L67.6176 56.3925L64.4412 58.2011L61 61.0433L58.6176 64.1438L56.2353 67.2444L54.6471 70.0866L53.5882 73.4455L52.5294 76.5461L52.2647 79.6466L52 84.0391L52.2647 87.398L53.8529 93.3407L56.2353 97.9915L58.3529 101.35L61.5294 104.709L64.7059 107.552L70.2647 110.652L75.5588 112.461L80.5882 113.494H84.5588L89.3235 112.978L94.0882 111.944L98.0588 110.135L103.353 106.776L106.529 103.676L108.912 100.834L110.765 98.2499L112.618 94.6326L113.676 91.5321L114.206 88.9483L114.735 86.6228L115 84.8142V82.4888V80.9385V79.905L114.735 78.6131L114.206 79.6466L113.412 80.6801L112.088 82.2304L110.5 83.5223L108.647 84.8142L107.059 85.5893L105.735 86.1061L104.147 86.3645L103.088 86.6228H102.559H101.765H101.235L100.441 86.3645H99.3824L97.2647 85.331L95.9412 84.5558L95.1471 83.5223L94.0882 82.7472L93.2941 81.4553L92.5 80.1634L91.4412 78.0963L91.1765 77.5796L90.6471 76.2877L90.3824 75.2542L90.1176 74.479L89.8529 73.4455L89.5882 72.6704V72.1536L89.0588 70.8617L88.5294 67.2444V66.2109L88.2647 65.1774V64.1438L88 62.8519V62.0768V61.56V61.0433V60.0098V59.493V59.2346V58.7179V58.2011V57.6843V57.1676V56.6508L88.2647 56.1341V55.6173V55.1006V54.5838L88.5294 53.5503Z" stroke="#DBC3FD" stroke-width="3" shape-rendering="crispEdges"/>
</g>
<defs>
<filter id="filter0_d_2949_531" x="0.496338" y="0.5" width="166.004" height="164.494" filterUnits="userSpaceOnUse" color-interpolation-filters="sRGB">
<feFlood flood-opacity="0" result="BackgroundImageFix"/>
<feColorMatrix in="SourceAlpha" type="matrix" values="0 0 0 0 0 0 0 0 0 0 0 0 0 0 0 0 0 0 127 0" result="hardAlpha"/>
<feOffset/>
<feGaussianBlur stdDeviation="25"/>
<feComposite in2="hardAlpha" operator="out"/>
<feColorMatrix type="matrix" values="0 0 0 0 0.188235 0 0 0 0 0.835294 0 0 0 0 0.784314 0 0 0 1 0"/>
<feBlend mode="normal" in2="BackgroundImageFix" result="effect1_dropShadow_2949_531"/>
<feBlend mode="normal" in="SourceGraphic" in2="effect1_dropShadow_2949_531" result="shape"/>
</filter>
</defs>
</svg>
